PathFileType	4	(X/Y/Z)	C:\Users\Basilio\Documents\Thesis Gigler\squatting_fais\c3dfiles\054\SLS_back_pre2\markers_experimental.trc
DataRate	CameraRate	NumFrames	NumMarkers	Units	OrigDataRate	OrigDataStartFrame	OrigNumFrames
200.000000	200.000000	4	61	mm	200.000000	1343	1535
Frame#	Time	FHD			LBHD			RBHD			C7			T10			CLAV			LSHO			LUUPA			LMUPA			LDUPA			LLEP			LMEP			LRAD			LUL			LRFIN			RSHO			RUPA1			RMUPA			RDUPA			RLEP			RMEP			RRAD			RUL			RUFIN			LASI			RASI			USACR			LSACR			RSACR			LTHI1			LTHI2			LTHI3			LTHI4			LLFC			LMFC			LTIB1			LTIB2			LTIB3			LTIB4			LLMAL			LMMAL			LHEE			LMT1			LMT2			LMT5			RTHI			RTHI2			RTHI3			RTHI4			RLFC			RMFC			RTIB1			RTIB2			RTIB3			RTIB4			RLMAL			RMMAL			RHEE			RMT1			RMT2			RMT5			
		X1	Y1	Z1	X2	Y2	Z2	X3	Y3	Z3	X4	Y4	Z4	X5	Y5	Z5	X6	Y6	Z6	X7	Y7	Z7	X8	Y8	Z8	X9	Y9	Z9	X10	Y10	Z10	X11	Y11	Z11	X12	Y12	Z12	X13	Y13	Z13	X14	Y14	Z14	X15	Y15	Z15	X16	Y16	Z16	X17	Y17	Z17	X18	Y18	Z18	X19	Y19	Z19	X20	Y20	Z20	X21	Y21	Z21	X22	Y22	Z22	X23	Y23	Z23	X24	Y24	Z24	X25	Y25	Z25	X26	Y26	Z26	X27	Y27	Z27	X28	Y28	Z28	X29	Y29	Z29	X30	Y30	Z30	X31	Y31	Z31	X32	Y32	Z32	X33	Y33	Z33	X34	Y34	Z34	X35	Y35	Z35	X36	Y36	Z36	X37	Y37	Z37	X38	Y38	Z38	X39	Y39	Z39	X40	Y40	Z40	X41	Y41	Z41	X42	Y42	Z42	X43	Y43	Z43	X44	Y44	Z44	X45	Y45	Z45	X46	Y46	Z46	X47	Y47	Z47	X48	Y48	Z48	X49	Y49	Z49	X50	Y50	Z50	X51	Y51	Z51	X52	Y52	Z52	X53	Y53	Z53	X54	Y54	Z54	X55	Y55	Z55	X56	Y56	Z56	X57	Y57	Z57	X58	Y58	Z58	X59	Y59	Z59	X60	Y60	Z60	X61	Y61	Z61	

1344	6.715	-195.7189483642579	1796.144287109375	-1055.215087890625	-363.0226135253907	1744.855224609375	-1119.177490234375	-372.7749328613282	1746.432006835938	-979.1160278320315	-404.919647216797	1569.032836914063	-1040.163452148438	-422.5531311035157	1240.505493164063	-1032.230102539063	-256.8205566406251	1519.927612304688	-1043.223999023438	-332.1151123046876	1567.962890625	-1195.679321289063	-189.7353820800782	1434.579223632813	-1323.050659179688	-153.2133941650391	1466.272094726563	-1311.602172851563	-122.4777526855469	1420.481201171875	-1335.348266601563	-63.7458953857422	1418.991577148438	-1335.802368164063	-67.91967773437501	1354.026611328125	-1288.77978515625	185.9775390625	1433.026977539063	-1234.624145507813	206.9842071533204	1400.351806640625	-1302.99560546875	279.4650878906251	1451.298461914063	-1245.47900390625	-330.6163940429688	1570.142333984375	-895.5673828125002	-189.914291381836	1444.432983398438	-757.9488525390626	-151.7180480957032	1471.873046875	-768.502868652344	-124.1447219848633	1423.697998046875	-743.4169921875001	-78.02073669433595	1414.441650390625	-742.5764770507814	-83.58121490478517	1356.271850585938	-794.8846435546877	168.7040252685547	1466.138916015625	-890.4598388671877	181.3450622558594	1452.145263671875	-811.096374511719	239.515853881836	1502.629516601563	-893.2543945312502	-234.4839782714844	1055.71044921875	-1132.810546875	-244.6990203857422	1086.17724609375	-881.0668945312502	-423.7994689941407	1156.088623046875	-1023.421691894531	-429.7271423339845	1122.156494140625	-1048.0556640625	-432.4962768554689	1126.314086914063	-991.5191650390627	-330.5406799316407	814.8842773437502	-1198.000732421875	-299.5557250976563	735.0608520507814	-1192.692260742188	-252.0225524902344	738.4326171875001	-1188.4609375	-328.7687683105469	684.7282714843751	-1171.489379882813	-329.3515319824219	531.5581054687501	-1143.221313476563	-298.1172485351563	534.0178222656251	-1006.859497070313	-286.2969360351563	370.7455749511719	-1082.393920898438	-333.9464416503907	320.6174926757813	-1137.291625976563	-296.6604003906251	320.3688659667969	-1111.42236328125	-302.6545715332032	245.2319946289063	-1072.780517578125	-360.6649780273438	109.0339965820313	-1102.335571289063	-330.0311584472657	132.0421142578125	-1012.7158203125	-428.6653442382814	100.4613342285157	-1043.23486328125	-216.6967315673829	56.72779846191408	-1020.246276855469	-208.5234069824219	54.48342895507814	-1069.637573242188	-260.2164611816407	37.47056198120118	-1121.0703125	-296.5239562988282	794.6321411132815	-757.2719726562501	-250.5091857910157	748.0496215820314	-743.8203735351564	-217.229721069336	752.2632446289064	-748.6592407226564	-264.0823669433594	665.2971801757814	-747.4113769531251	-262.6219787597657	579.2147216796876	-733.6850585937501	-208.835433959961	560.7969970703126	-860.0156250000002	-211.8045043945313	469.7229614257814	-721.6846923828126	-290.2104492187501	408.1587829589845	-682.2442016601564	-245.0955963134766	396.1612548828126	-688.8928222656251	-234.2042388916016	342.0338134765626	-704.8381958007814	-303.7433166503907	169.4546356201172	-659.7338256835939	-264.8873291015626	177.3643493652344	-747.5100708007814	-370.1925354003907	146.5413055419922	-715.2285766601564	-155.6612396240235	84.21056365966798	-728.7682495117189	-150.8661346435547	89.99076080322267	-682.0460815429689	-201.3821258544922	78.69923400878908	-634.3076171875001	
1345	6.72	-196.1300354003907	1795.904907226563	-1054.017333984375	-363.1013488769532	1744.792602539063	-1118.02197265625	-372.7487182617188	1746.364013671875	-977.7749633789065	-405.007293701172	1568.755981445313	-1038.984497070313	-422.2686462402345	1240.198608398438	-1031.153930664063	-256.6193542480469	1519.830932617188	-1042.074096679688	-332.3829956054688	1567.725708007813	-1194.381591796875	-190.2519073486328	1434.520141601563	-1322.098266601563	-153.6560974121094	1466.1455078125	-1310.60205078125	-122.7598190307617	1420.35302734375	-1334.49267578125	-64.15734863281251	1418.858154296875	-1334.8359375	-68.16041564941408	1353.748046875	-1288.133911132813	186.061752319336	1432.940063476563	-1233.843994140625	205.9435424804688	1400.437622070313	-1302.307739257813	279.1706542968751	1451.240844726563	-1244.925903320313	-330.6529235839844	1569.970703125	-894.5340576171877	-189.6432647705078	1444.152587890625	-757.0493774414064	-151.392822265625	1471.741821289063	-767.4954833984376	-123.8031768798828	1423.411010742188	-742.6906127929689	-77.70288085937501	1414.260498046875	-741.7805786132814	-83.37100982666017	1356.036499023438	-794.0543212890627	169.5748748779297	1466.227172851563	-890.835144042969	181.5386657714844	1452.089233398438	-810.5798339843752	239.6325225830079	1502.593505859375	-892.7924804687502	-234.2726745605469	1055.708618164063	-1131.901733398438	-244.0253906250001	1085.784423828125	-880.3211059570315	-423.535369873047	1155.848999023438	-1022.281433105469	-428.2965698242189	1121.81005859375	-1047.402709960938	-432.0906982421876	1126.066772460938	-990.2739868164065	-330.5138854980469	815.0158691406252	-1197.537475585938	-299.7045593261719	735.1937866210939	-1192.279541015625	-252.4380493164063	738.6749267578126	-1188.126953125	-328.9480590820313	684.8775634765626	-1170.839233398438	-329.6759033203126	531.5843505859376	-1142.780395507813	-298.2376403808594	533.9896240234376	-1006.395751953125	-286.3247985839844	370.7893981933594	-1082.151733398438	-333.9018249511719	320.6370239257813	-1137.106689453125	-296.8255310058594	320.3699035644532	-1111.165283203125	-302.7028503417969	245.2704620361329	-1072.576416015625	-360.7567443847657	109.0622329711914	-1102.2724609375	-330.0538940429688	131.9647674560547	-1012.682861328125	-428.6802673339845	100.4346694946289	-1043.23583984375	-216.6885375976563	56.78293991088869	-1020.264587402344	-208.5332031250001	54.56725311279298	-1069.625732421875	-260.1681518554688	37.47003936767579	-1121.056396484375	-297.0384216308594	794.1005859375002	-756.7004394531251	-251.1297760009766	747.3180541992189	-743.6763305664064	-217.8307647705079	751.3330688476564	-748.3685302734376	-265.2722778320313	664.6358642578126	-747.1860961914064	-263.8934020996094	578.3437500000001	-733.4821777343751	-209.9122772216797	559.8344116210939	-860.050964355469	-212.8572692871094	469.0646057128907	-721.4238281250001	-290.7013549804688	407.3419494628907	-682.1127929687501	-245.9705810546876	395.3959960937501	-688.4379882812501	-234.5934753417969	341.2423400878907	-704.6030883789064	-303.4012756347657	168.6591796875	-659.1553344726564	-264.9356079101563	176.2665710449219	-747.0649414062501	-370.1331787109376	145.8383178710938	-714.3345947265626	-155.9360656738282	82.38580322265626	-728.3699951171876	-150.7786407470703	88.23565673828126	-681.7107543945314	-201.4962768554688	77.13636779785158	-633.7369995117189	
1346	6.725000000000001	-196.0940551757813	1795.707397460938	-1052.892700195313	-363.5237731933594	1744.799682617188	-1116.78759765625	-373.2111511230469	1746.22998046875	-976.5665283203127	-405.1262512207032	1568.61572265625	-1037.789916992188	-422.2079162597657	1240.018432617188	-1029.856323242188	-256.6239013671876	1519.8212890625	-1041.03125	-332.6627502441407	1567.570068359375	-1193.357299804688	-190.786865234375	1434.386962890625	-1321.010864257813	-153.8662109375	1466.092163085938	-1309.752319335938	-123.1772384643555	1420.33056640625	-1333.5439453125	-64.42021942138673	1418.8486328125	-1334.2470703125	-68.62403106689455	1353.806396484375	-1287.322265625	186.1139831542969	1432.859375	-1233.043823242188	205.5328674316407	1400.374633789063	-1301.604370117188	279.0205993652344	1450.924072265625	-1244.189331054688	-330.6288757324219	1569.780639648438	-893.1989746093752	-189.3236999511719	1443.913696289063	-756.1434936523439	-151.1842041015625	1471.498901367188	-766.6820068359376	-123.4450988769532	1423.155151367188	-741.8800659179689	-77.4440383911133	1414.080322265625	-740.9561767578126	-83.10606384277345	1355.801147460938	-793.3911743164065	173.4765167236328	1466.008911132813	-893.292907714844	181.8413848876953	1451.93310546875	-810.0933837890627	239.7277069091797	1502.541259765625	-892.392517089844	-233.943832397461	1055.860107421875	-1131.249145507813	-243.7313537597657	1085.230590820313	-879.3967895507815	-423.3338012695314	1155.782836914063	-1021.169982910156	-428.054412841797	1121.62451171875	-1046.072021484375	-431.732879638672	1125.772338867188	-989.3713378906252	-330.4018249511719	815.1636962890627	-1197.11376953125	-299.7717590332032	735.2512207031251	-1191.640502929688	-252.3428497314454	738.7005615234376	-1187.65771484375	-328.5671691894532	684.7517700195314	-1170.184814453125	-329.8569335937501	531.6739501953126	-1142.281372070313	-298.4108886718751	533.9166870117189	-1005.931762695313	-286.3540344238282	370.8584899902344	-1081.874389648438	-333.9695129394532	320.8066406250001	-1136.925170898438	-297.0289001464844	320.4956970214844	-1110.883422851563	-302.8057250976563	245.2827301025391	-1072.375610351563	-360.8020324707032	109.0602493286133	-1102.261108398438	-330.1078491210938	131.9483184814453	-1012.661865234375	-428.6838684082032	100.3992080688477	-1043.25634765625	-216.6905059814454	56.7878761291504	-1020.262878417969	-208.5631713867188	54.57144165039064	-1069.632080078125	-260.1062316894532	37.46931838989259	-1121.063842773438	-297.5125732421876	793.5046997070315	-756.1905517578126	-251.9965057373047	746.3649291992189	-743.1992797851564	-218.5886535644532	750.3872070312501	-748.0399169921876	-266.5502319335938	663.7859497070314	-746.9425659179689	-265.3691711425782	577.3971557617189	-733.2911987304689	-210.8658142089844	558.8039550781251	-860.0928955078127	-213.7759704589844	468.3058166503907	-721.3808593750001	-291.5312194824219	406.2402648925782	-681.6934204101564	-246.5116119384766	394.8411254882814	-688.1315307617189	-234.9765319824219	340.3953247070313	-704.2765502929689	-303.2088012695313	167.45947265625	-658.3536376953126	-264.7042236328126	175.1987915039063	-746.3336181640626	-369.8097534179688	145.3369445800782	-713.6905517578126	-156.0004272460938	80.88272857666017	-728.0498046875001	-151.0140533447266	86.32547760009767	-681.3709716796876	-201.571762084961	75.55159759521486	-633.3572387695314	
1347	6.73	-196.2543640136719	1795.615600585938	-1051.724731445313	-363.5433044433594	1744.714233398438	-1115.585327148438	-373.1032409667969	1746.180541992188	-975.3769531250002	-405.2508239746095	1568.37548828125	-1036.468505859375	-421.7638549804689	1239.693969726563	-1028.711791992188	-256.8035278320313	1519.671997070313	-1040.02587890625	-332.7389221191407	1567.345581054688	-1192.103759765625	-191.3026885986328	1434.412963867188	-1320.12353515625	-154.3210754394532	1465.968505859375	-1308.77978515625	-123.5963134765625	1420.365844726563	-1332.541625976563	-64.78648376464845	1418.777709960938	-1333.20263671875	-69.01979827880861	1353.6904296875	-1286.252075195313	185.694564819336	1432.666748046875	-1232.386962890625	205.7961730957032	1400.08935546875	-1300.934814453125	278.4997558593751	1450.770263671875	-1243.44921875	-330.6141967773438	1569.5703125	-892.1820068359377	-189.061264038086	1443.521240234375	-755.2070922851564	-151.0416412353516	1471.206909179688	-765.7130126953126	-123.2279663085938	1422.993896484375	-741.0362548828126	-77.16731262207033	1413.659545898438	-740.2996826171876	-82.87911987304689	1355.603393554688	-792.5595703125002	172.992904663086	1465.800048828125	-892.042419433594	182.0262603759766	1451.787231445313	-809.501159667969	239.8056030273438	1502.521606445313	-891.9989013671877	-233.7053222656251	1055.957641601563	-1130.526733398438	-243.1892242431641	1084.807739257813	-878.3212890625002	-422.9358520507814	1155.573974609375	-1020.086242675781	-427.5415954589845	1121.354370117188	-1045.2275390625	-431.2260742187501	1125.4970703125	-988.1090087890627	-330.2185668945313	815.3774414062502	-1196.475463867188	-299.7761840820313	735.3117065429689	-1190.9296875	-252.3476867675782	738.7140502929689	-1187.119018554688	-329.2573547363282	685.0838623046876	-1169.76708984375	-330.0521240234376	531.7615356445314	-1141.780151367188	-298.6333618164063	533.8751220703126	-1005.582641601563	-286.5261840820313	370.8371276855469	-1081.551391601563	-334.0473937988282	320.8650512695313	-1136.608520507813	-297.1620483398438	320.6045227050782	-1110.562866210938	-302.8498229980469	245.2927398681641	-1072.2822265625	-360.9045410156251	109.1678848266602	-1102.242309570313	-330.1694335937501	131.898193359375	-1012.58203125	-428.6719055175782	100.3885040283203	-1043.271728515625	-216.6935272216797	56.79174423217775	-1020.260131835938	-208.5145874023438	54.56178665161134	-1069.658935546875	-260.1949768066407	37.45853424072266	-1121.093383789063	-298.1376953125001	792.8176879882815	-755.7267456054689	-252.9423065185547	745.4877319335939	-742.6911621093751	-219.5290222167969	749.2752685546876	-747.7257080078126	-267.7124328613282	663.0080566406251	-746.6441650390626	-266.8205261230469	576.6787109375001	-733.0684814453126	-212.2006378173829	557.7665405273439	-860.0371093750002	-214.9118652343751	467.6398925781251	-721.2790527343751	-292.2669982910157	405.4373474121095	-681.4130249023439	-247.1967010498047	393.9213256835939	-687.9270019531251	-235.6710815429688	339.7657470703126	-703.8660888671876	-302.9365844726563	166.6032104492188	-657.7856445312501	-264.6495056152344	174.0773162841797	-745.7249145507814	-369.6527404785157	144.8816986083985	-713.0806884765626	-156.5345153808594	78.76455688476564	-727.7937011718751	-151.1697082519532	84.39820098876955	-681.0269775390626	-201.6894531250001	73.71677398681642	-633.1080932617189	
